<?xml version="1.0" standalone="no"?>
<!DOCTYPE svg PUBLIC "-//W3C//DTD SVG 20010904//EN"
 "http://www.w3.org/TR/2001/REC-SVG-20010904/DTD/svg10.dtd">
<svg version="1.0" xmlns="http://www.w3.org/2000/svg"
 width="225.000000pt" height="225.000000pt" viewBox="0 0 225.000000 225.000000"
 preserveAspectRatio="xMidYMid meet">

<g transform="translate(0.000000,225.000000) scale(0.100000,-0.100000)"
fill="#000000" stroke="none">
<path d="M997 2239 c-255 -27 -499 -149 -682 -340 -157 -164 -246 -336 -296
-574 -19 -86 -15 -321 6 -420 48 -227 156 -424 317 -581 397 -387 1014 -427
1454 -96 495 374 596 1071 227 1567 -186 250 -473 413 -784 445 -112 11 -129
11 -242 -1z m407 -103 c185 -56 326 -138 455 -265 133 -133 231 -302 284 -489
18 -66 21 -104 21 -262 0 -172 -2 -191 -27 -275 -111 -369 -385 -637 -755
-737 -110 -30 -339 -36 -453 -13 -428 86 -745 402 -834 829 -22 109 -22 298 0
406 65 321 277 594 570 737 170 83 272 104 485 99 144 -3 176 -7 254 -30z"/>
<path d="M1099 1948 c-54 -18 -60 -95 -10 -126 26 -17 26 -19 18 -79 l-9 -61
-43 19 c-89 39 -139 42 -278 14 -70 -14 -149 -25 -177 -25 l-50 0 0 -35 c0
-28 4 -35 20 -35 11 0 20 -5 20 -12 0 -19 -251 -652 -261 -659 -16 -10 75 -88
136 -116 52 -24 72 -28 150 -28 80 0 97 3 155 31 70 33 151 101 134 112 -9 6
-264 648 -264 665 0 4 102 7 226 7 l225 0 -6 -112 c-7 -137 -25 -715 -25 -814
0 -57 -4 -78 -23 -105 -30 -44 -96 -84 -198 -119 l-84 -29 370 0 370 0 -91 33
c-109 40 -181 87 -199 130 -8 21 -16 157 -24 431 -6 220 -14 442 -18 493 l-6
92 227 0 c124 0 226 -2 226 -4 0 -8 -242 -621 -256 -651 -15 -30 -15 -31 26
-67 23 -21 67 -50 99 -65 49 -25 67 -28 151 -28 87 0 101 3 160 32 36 17 79
47 97 65 l32 33 -132 340 c-129 330 -133 340 -110 343 19 3 23 9 23 37 l0 33
-72 7 c-40 4 -112 15 -160 26 -114 25 -158 24 -243 -5 -38 -14 -71 -23 -72
-22 -1 1 -6 27 -11 58 -8 53 -8 57 15 67 13 6 28 23 34 38 22 57 -32 111 -92
91z m-359 -693 c62 -159 114 -296 117 -302 4 -10 -47 -13 -234 -13 -132 0
-242 3 -245 6 -3 3 18 65 47 137 29 73 83 210 120 305 37 95 71 170 75 165 4
-4 58 -138 120 -298z m1019 -6 l119 -304 -236 -3 c-130 -1 -239 1 -243 5 -4 5
44 136 105 293 62 157 115 294 119 304 4 10 10 17 13 14 2 -3 58 -142 123
-309z"/>
</g>
</svg>
